<?xml version="1.0" encoding="UTF-8" standalone="no"?>
<!-- Created with Inkscape (http://www.inkscape.org/) -->

<svg
   xmlns:dc="http://purl.org/dc/elements/1.1/"
   xmlns:cc="http://creativecommons.org/ns#"
   xmlns:rdf="http://www.w3.org/1999/02/22-rdf-syntax-ns#"
   xmlns:svg="http://www.w3.org/2000/svg"
   xmlns="http://www.w3.org/2000/svg"
   xmlns:sodipodi="http://sodipodi.sourceforge.net/DTD/sodipodi-0.dtd"
   xmlns:inkscape="http://www.inkscape.org/namespaces/inkscape"
   id="svg3049"
   version="1.1"
   inkscape:version="0.48.2 r9819"
   width="32"
   height="32"
   sodipodi:docname="ulitka.svg"
   inkscape:export-filename="/home/baden/Документы/ulitka.png"
   inkscape:export-xdpi="90"
   inkscape:export-ydpi="90">
  <metadata
     id="metadata3055">
    <rdf:RDF>
      <cc:Work
         rdf:about="">
        <dc:format>image/svg+xml</dc:format>
        <dc:type
           rdf:resource="http://purl.org/dc/dcmitype/StillImage" />
        <dc:title />
      </cc:Work>
    </rdf:RDF>
  </metadata>
  <defs
     id="defs3053" />
  <sodipodi:namedview
     pagecolor="#ffffff"
     bordercolor="#666666"
     borderopacity="1"
     objecttolerance="10"
     gridtolerance="10"
     guidetolerance="10"
     inkscape:pageopacity="0"
     inkscape:pageshadow="2"
     inkscape:window-width="1870"
     inkscape:window-height="1056"
     id="namedview3051"
     showgrid="false"
     inkscape:zoom="9.3636651"
     inkscape:cx="-3.8253551"
     inkscape:cy="26.144865"
     inkscape:window-x="50"
     inkscape:window-y="24"
     inkscape:window-maximized="1"
     inkscape:current-layer="svg3049" />
  <g
     id="g3857"
     transform="matrix(0.6466662,0,0,0.66744696,0.8422599,7.1022672e-4)"
     style="stroke-width:3.04425855;stroke-miterlimit:4;stroke-dasharray:none">
    <path
       sodipodi:nodetypes="cssssssc"
       inkscape:connector-curvature="0"
       id="path3059"
       d="m 33.231247,19.381523 c 0,0 -3.177966,2.118645 -2.330508,3.81356 0.847457,1.694915 6.144068,0.847457 5.932203,-4.449153 C 36.621078,13.44932 24.011865,13.022001 23.697349,24.254405 23.27362,39.387163 46.662838,32.848148 46.98775,16.052525 47.276204,1.1414881 22.421243,-9.5618256 16.705824,20.017117 12.897691,39.725307 40.006943,45.474357 41.669851,42.248608 42.010767,41.587291 39.012123,32.090034 38.420876,31.080215"
       style="fill:none;stroke:#000000;stroke-width:3.04425855;stroke-linecap:butt;stroke-linejoin:miter;stroke-miterlimit:4;stroke-opacity:1;stroke-dasharray:none" />
    <path
       sodipodi:nodetypes="cssssscssscc"
       inkscape:connector-curvature="0"
       id="path3061"
       d="m 15.858366,26.628964 c 0,0 -1.13274,-3.096157 -0.75516,-8.080215 0.37758,-4.984057 0.151032,-9.3639867 -7.1740234,-8.9108907 -7.3250544,0.4530967 -7.7650644,6.1937587 -7.8536666,8.9108907 -0.226548,6.947474 4.3799296,13.743917 4.2288976,18.576943 -0.151032,4.833025 -3.0206411,7.476087 0.37758,7.400571 3.398221,-0.07552 3.624769,-4.00235 3.624769,-4.00235 0,0 -1.812384,6.26783 1.661353,6.26783 3.4737374,0 1.9634174,-2.869609 6.9474744,-2.26548 4.984058,0.604128 5.286122,2.64306 9.817084,2.567544 4.530961,-0.07552 7.098506,-4.153381 7.098506,-4.153381 l 0,0"
       style="fill:none;stroke:#000000;stroke-width:3.04425855;stroke-linecap:butt;stroke-linejoin:miter;stroke-miterlimit:4;stroke-opacity:1;stroke-dasharray:none" />
    <path
       inkscape:connector-curvature="0"
       id="path3063"
       d="M 5.8147336,10.015439 4.3799296,5.1824131"
       style="fill:none;stroke:#000000;stroke-width:3.04425855;stroke-linecap:butt;stroke-linejoin:miter;stroke-miterlimit:4;stroke-opacity:1;stroke-dasharray:none" />
    <path
       inkscape:connector-curvature="0"
       id="path3065"
       d="M 13.366337,10.846115 15.78285,6.4661856"
       style="fill:none;stroke:#000000;stroke-width:3.04425855;stroke-linecap:butt;stroke-linejoin:miter;stroke-miterlimit:4;stroke-opacity:1;stroke-dasharray:none" />
    <path
       sodipodi:nodetypes="cc"
       inkscape:connector-curvature="0"
       id="path3067"
       d="m 3.3227056,19.530458 c 1.812384,2.416513 4.681993,2.718577 7.1740224,0.604128"
       style="fill:none;stroke:#000000;stroke-width:3.04425855;stroke-linecap:butt;stroke-linejoin:miter;stroke-miterlimit:4;stroke-opacity:1;stroke-dasharray:none" />
    <path
       inkscape:connector-curvature="0"
       id="path3069"
       d="m 3.8513176,13.942272 1.812384,0.981708"
       style="fill:none;stroke:#000000;stroke-width:3.04425855;stroke-linecap:butt;stroke-linejoin:miter;stroke-miterlimit:4;stroke-opacity:1;stroke-dasharray:none" />
    <path
       inkscape:connector-curvature="0"
       id="path3071"
       d="m 9.4395036,15.981205 2.0389324,0.528612"
       style="fill:none;stroke:#000000;stroke-width:3.04425855;stroke-linecap:butt;stroke-linejoin:miter;stroke-miterlimit:4;stroke-opacity:1;stroke-dasharray:none" />
  </g>
</svg>
